<?xml version="1.0" encoding="UTF-8"?>
<svg xmlns="http://www.w3.org/2000/svg" width="900" height="240" viewBox="0 0 900 240">
  <style>
    .rect { fill:#071126; stroke:#60a5fa; stroke-width:2; rx:6 }
    .text { fill:#e6f9ff; font-family: Inter, Arial, sans-serif; font-size:13px }
    .arrow { stroke:#60a5fa; stroke-width:2; fill:none; marker-end:url(#a) }
  </style>
  <defs>
    <marker id="a" markerWidth="10" markerHeight="10" refX="10" refY="5" orient="auto">
      <path d="M0,0 L10,5 L0,10 z" fill="#60a5fa" />
    </marker>
  </defs>
  <!-- Nodes -->
  <rect class="rect" x="20" y="30" width="160" height="50" />
  <text x="100" y="60" class="text" text-anchor="middle">User Goal</text>

  <rect class="rect" x="220" y="30" width="160" height="50" />
  <text x="300" y="60" class="text" text-anchor="middle">PRS (optional)</text>

  <rect class="rect" x="420" y="30" width="160" height="50" />
  <text x="500" y="60" class="text" text-anchor="middle">Proposal Service</text>

  <rect class="rect" x="620" y="30" width="160" height="50" />
  <text x="700" y="60" class="text" text-anchor="middle">Validation</text>

  <rect class="rect" x="320" y="120" width="160" height="50" />
  <text x="400" y="150" class="text" text-anchor="middle">Apply Bundle</text>

  <rect class="rect" x="720" y="120" width="160" height="50" />
  <text x="800" y="150" class="text" text-anchor="middle">Audit + Inventory</text>

  <!-- Arrows -->
  <path class="arrow" d="M180,55 L220,55" />
  <path class="arrow" d="M380,55 L420,55" />
  <path class="arrow" d="M580,55 L620,55" />
  <path class="arrow" d="M500,80 L400,120" />
  <path class="arrow" d="M480,145 L720,145" />
</svg>
